PathFileType	4	(X/Y/Z)	./resultDataOpenSim/trcMotMarkerGrf/sub06/qtm-01-01.trc
DataRate	CameraRate	NumFrames	NumMarkers	Units	OrigDataRate	OrigDataStartFrame	OrigNumFrames
250.000000	250.000000	12	24	m	250.000000	178	472
Frame#	Time	L.Toe.Tip			R.Toe.Tip			L.Ankle.Lat			R.Ankle.Lat			L.Ankle.Med			R.Ankle.Med			L.Heel			R.Heel			L.Knee.Lat			R.Knee.Lat			L.Knee.Med			R.Knee.Med			L.Thigh.Upper			R.Thigh.Upper			L.ASIS			R.ASIS			V.Sacral			L.Acromium			R.Acromium			C7			L.Elbow			R.Elbow			L.Wrist.Lat			R.Wrist.Lat
		X1	Y1	Z1	X2	Y2	Z2	X3	Y3	Z3	X4	Y4	Z4	X5	Y5	Z5	X6	Y6	Z6	X7	Y7	Z7	X8	Y8	Z8	X9	Y9	Z9	X10	Y10	Z10	X11	Y11	Z11	X12	Y12	Z12	X13	Y13	Z13	X14	Y14	Z14	X15	Y15	Z15	X16	Y16	Z16	X17	Y17	Z17	X18	Y18	Z18	X19	Y19	Z19	X20	Y20	Z20	X21	Y21	Z21	X22	Y22	Z22	X23	Y23	Z23	X24	Y24	Z24

178	0.708	0.025583021	0.035973452	-0.056505463	-0.43691629	0.094477566	0.13244685	-0.097572317	0.066560696	-0.07492599	-0.46230809	0.23289423	0.1475889	-0.094965077	0.080218115	0.012656496	-0.42351465	0.2190986	0.066422883	-0.17248621	0.039820264	-0.02705323	-0.49734431	0.26840004	0.081802285	-0.0074153892	0.42955921	-0.10186508	-0.12767273	0.40303806	0.18283228	-0.030132657	0.42998947	0.019083593	-0.12688572	0.3834701	0.047410413	-0.1383971	0.80483598	-0.16495666	-0.19524568	0.76572452	0.1717769	-0.075740505	0.84187133	-0.10811799	-0.095522093	0.82551001	0.13721198	-0.26788624	0.91560166	0.010451701	-0.13865349	1.3139885	-0.18184434	-0.15223879	1.3172371	0.18003809	-0.22082154	1.3536552	-0.0048574797	-0.22140315	1.0089826	-0.22858238	-0.20778062	1.0028436	0.26236454	-0.11899163	0.7933402	-0.27989101	-0.0069587765	0.85474614	0.26619143
179	0.712	0.025574116	0.035907592	-0.056378557	-0.41866719	0.094755581	0.13406516	-0.097643138	0.066593928	-0.074922126	-0.44715149	0.23229027	0.1477835	-0.095032107	0.080283834	0.012713587	-0.40796311	0.21872738	0.066621348	-0.17247119	0.039895992	-0.026890031	-0.482346	0.26672012	0.081343894	-0.0061158679	0.42940306	-0.10166773	-0.11479094	0.40631506	0.18287668	-0.028760097	0.42986636	0.019268585	-0.11331691	0.38616928	0.047608062	-0.13333433	0.80603903	-0.16521881	-0.18748579	0.7677859	0.17144083	-0.070196427	0.84315609	-0.10892241	-0.089002095	0.82763906	0.13670609	-0.2619198	0.91763049	0.0096450863	-0.13196446	1.3162274	-0.18150035	-0.14576452	1.3189699	0.18028056	-0.21410746	1.3555817	-0.0045581333	-0.21228545	1.0102733	-0.22939511	-0.20362781	1.0050183	0.26195987	-0.10680891	0.79586301	-0.27907264	-0.0056358734	0.85353265	0.26682065
180	0.716	0.025578098	0.035900555	-0.056330955	-0.40024129	0.094844997	0.13559987	-0.097747011	0.066621365	-0.074944047	-0.43184532	0.23148214	0.14798714	-0.095049351	0.08035989	0.012815405	-0.39235252	0.21823663	0.066842381	-0.17246865	0.039993342	-0.026779806	-0.46698441	0.26460801	0.080716905	-0.004861427	0.42925151	-0.10141435	-0.10203141	0.40970904	0.18287106	-0.027596056	0.42970056	0.019476448	-0.099753334	0.38907621	0.047732975	-0.12815853	0.80724076	-0.16542474	-0.18034055	0.76976946	0.17187047	-0.064638129	0.84451464	-0.10968637	-0.082432521	0.82979518	0.1361812	-0.25601283	0.91963319	0.0088984441	-0.12530301	1.3184695	-0.18114614	-0.13924965	1.3206768	0.18050934	-0.20740728	1.3575002	-0.0042436493	-0.20323259	1.0116041	-0.23007958	-0.19941853	1.0072427	0.26157462	-0.094560327	0.79847968	-0.27818843	-0.004389515	0.85239785	0.26744335
181	0.72	0.025581514	0.035957061	-0.05639376	-0.38163157	0.094769966	0.13704052	-0.097858554	0.066652302	-0.074970326	-0.41638576	0.23050544	0.14817413	-0.095017345	0.080433775	0.012959538	-0.37668459	0.21761131	0.067112001	-0.17249852	0.040120513	-0.026772857	-0.45170283	0.26221357	0.080181245	-0.003666816	0.4291072	-0.10112348	-0.089387214	0.41319726	0.18282109	-0.026672379	0.42948192	0.019682797	-0.086336397	0.39225707	0.047725286	-0.12299601	0.80841717	-0.16562393	-0.17352905	0.77189676	0.17263116	-0.059018564	0.8459465	-0.1103972	-0.07581843	0.83197492	0.13564383	-0.25003742	0.9215401	0.0084237828	-0.11866809	1.3207051	-0.1807852	-0.13271346	1.3223586	0.18073223	-0.20073028	1.3594029	-0.0039152419	-0.19431541	1.0129781	-0.23052736	-0.19520222	1.009501	0.26120681	-0.082212309	0.80119533	-0.27722782	-0.0032182592	0.85133541	0.26806725
182	0.724	0.025570191	0.036018667	-0.056485487	-0.36281336	0.094554712	0.13840082	-0.097928996	0.066706114	-0.074958288	-0.40080366	0.2293503	0.14833316	-0.094954209	0.080497087	0.013132124	-0.36094284	0.21680987	0.06739225	-0.17256376	0.040271828	-0.026862332	-0.43676388	0.25963098	0.079888336	-0.0025379219	0.4289746	-0.10079588	-0.076851977	0.41675694	0.1827333	-0.02590926	0.42925125	0.019930397	-0.073127285	0.39570441	0.047602075	-0.11789851	0.80956928	-0.16584886	-0.16668763	0.77425522	0.17336576	-0.053314065	0.84744432	-0.11104623	-0.069159464	0.83417912	0.13509688	-0.24396884	0.92335287	0.0082168157	-0.11205345	1.322934	-0.18042322	-0.12617385	1.3240155	0.18095209	-0.19407735	1.3612777	-0.0035787336	-0.18546984	1.014373	-0.2308671	-0.19105161	1.011769	0.26085332	-0.069789608	0.80400477	-0.27619709	-0.0021213406	0.85034202	0.26869474
183	0.728	0.025542263	0.036019689	-0.056495144	-0.34377859	0.094203955	0.13968582	-0.097928457	0.066794812	-0.074881857	-0.38510945	0.2280043	0.14847694	-0.094892624	0.080545438	0.01330849	-0.34504391	0.21580678	0.067666074	-0.17263182	0.040420606	-0.026929622	-0.42208305	0.25686189	0.079830822	-0.0014512052	0.42885419	-0.10041711	-0.064423589	0.42036737	0.18260834	-0.0251731	0.42907581	0.020289821	-0.060101767	0.39935121	0.047428278	-0.1127982	0.81070939	-0.16605053	-0.15956384	0.77676884	0.17394584	-0.047581375	0.84899614	-0.11164254	-0.062457782	0.83640926	0.13453555	-0.23786175	0.92511733	0.0081806351	-0.10545024	1.3251574	-0.18006354	-0.11963358	1.3256404	0.18116583	-0.18744393	1.3631132	-0.0032425567	-0.1766126	1.0157661	-0.23125401	-0.18700892	1.0140263	0.26050279	-0.05734493	0.80689491	-0.27509889	-0.0010937303	0.84941507	0.26932483
184	0.732	0.025520386	0.035978188	-0.05642845	-0.32454765	0.093726708	0.1408839	-0.097862986	0.066916225	-0.074745825	-0.36930162	0.22644701	0.148626	-0.09485412	0.080572881	0.01347334	-0.32893854	0.21461083	0.067962689	-0.17265482	0.040542594	-0.026828962	-0.40744072	0.25388689	0.079983988	-0.00037911213	0.42874082	-0.099979338	-0.05209929	0.42400872	0.18243989	-0.024429506	0.42897531	0.020753066	-0.047212151	0.40313298	0.047234245	-0.10759694	0.81183677	-0.1660851	-0.15213264	0.77932446	0.17437674	-0.041929442	0.85058957	-0.11221978	-0.055723115	0.83866189	0.13395304	-0.23181446	0.92689089	0.0081839205	-0.098859608	1.3273683	-0.17970381	-0.11308726	1.3272235	0.18137166	-0.18082803	1.3649	-0.0029117403	-0.16772703	1.0171509	-0.23172783	-0.18304992	1.0162675	0.26014635	-0.044913846	0.80984978	-0.27393285	-0.00012701572	0.84855146	0.26995686
185	0.736	0.02553291	0.035977165	-0.056398004	-0.30515204	0.09314999	0.14199252	-0.097765785	0.067058967	-0.074576397	-0.35338935	0.22464744	0.14879363	-0.094836934	0.080573083	0.013635063	-0.31274044	0.21324124	0.068270282	-0.17262527	0.040647383	-0.026561113	-0.39268898	0.25068504	0.08031824	0.00068697205	0.42862615	-0.099486921	-0.039874635	0.42766123	0.18222833	-0.023722661	0.4289161	0.021219304	-0.034435777	0.40701554	0.047022084	-0.10231646	0.81292034	-0.16581805	-0.14453623	0.78184833	0.17469696	-0.036370841	0.85221692	-0.11280844	-0.048964428	0.84093047	0.13335262	-0.2258275	0.92866235	0.0081246596	-0.092297223	1.3295517	-0.17933632	-0.10653375	1.3287578	0.18157412	-0.17423235	1.36663	-0.0025834367	-0.15884537	1.0185335	-0.23226436	-0.17911322	1.018496	0.2597894	-0.032501761	0.81285819	-0.27270441	0.00078752478	0.84774757	0.27059233
186	0.74	0.025579046	0.036049994	-0.056463355	-0.2855994	0.092501469	0.14303964	-0.097675697	0.067210011	-0.074402851	-0.33738544	0.2225876	0.14898311	-0.094825037	0.080546547	0.013821082	-0.296602	0.21170802	0.068523922	-0.17258557	0.040765795	-0.0262674	-0.37782767	0.2472176	0.080757609	0.0017510341	0.42850336	-0.098944145	-0.027744864	0.43130534	0.18198675	-0.023034396	0.42887402	0.02156563	-0.021836804	0.41097534	0.046795322	-0.09703489	0.81393115	-0.16529316	-0.13686107	0.78431966	0.17495265	-0.030773007	0.85386877	-0.11339849	-0.042181842	0.84321148	0.13274829	-0.21971955	0.93032015	0.0079929884	-0.085778871	1.3316941	-0.17895557	-0.099975812	1.3302371	0.18177896	-0.16765851	1.368298	-0.0022507909	-0.1500129	1.019919	-0.23284854	-0.17514623	1.0207096	0.25944249	-0.020105905	0.81591623	-0.2714299	0.0016661257	0.84699738	0.2712343
187	0.744	0.025633292	0.036146604	-0.056565765	-0.26588555	0.09179013	0.14405477	-0.097601657	0.067364232	-0.074230423	-0.32129247	0.22027529	0.14919094	-0.094786881	0.080508433	0.014062269	-0.28051566	0.21000436	0.068684919	-0.17257361	0.040918993	-0.026059855	-0.36291227	0.24345677	0.081229958	0.002824079	0.42837165	-0.09835232	-0.015697276	0.43492254	0.18172458	-0.022274761	0.42886965	0.021718169	-0.0095324467	0.41498808	0.046559955	-0.091732296	0.814883	-0.16474235	-0.12904769	0.78676586	0.17522353	-0.025033977	0.8555202	-0.11394922	-0.035369532	0.8455042	0.13215337	-0.21331631	0.93177097	0.0078458346	-0.079299049	1.3337901	-0.17856836	-0.093414008	1.3316545	0.1819872	-0.16110597	1.3699029	-0.0019110694	-0.14126804	1.0213017	-0.23348866	-0.17113168	1.0228961	0.25911027	-0.0077284435	0.81902377	-0.27013004	0.0025406327	0.84629316	0.27188771
188	0.748	0.025678402	0.03621106	-0.056625316	-0.24603432	0.091007751	0.14503375	-0.097530004	0.067523488	-0.074049279	-0.30509994	0.21773565	0.14941426	-0.094666873	0.080499286	0.014358963	-0.26428755	0.20808639	0.068804876	-0.17257801	0.041111837	-0.025929788	-0.34787827	0.23942454	0.081679189	0.0039043218	0.42823374	-0.097718913	-0.0037170081	0.43849998	0.18143615	-0.021438443	0.42892554	0.021754326	0.0024026695	0.41903671	0.046325992	-0.086330793	0.8158071	-0.16436678	-0.12106385	0.78922895	0.17560215	-0.019200477	0.85714023	-0.11443336	-0.028525886	0.84780412	0.13157067	-0.20665818	0.93304958	0.0077144271	-0.072823634	1.3358377	-0.17819123	-0.086847054	1.3330059	0.18219593	-0.15457596	1.3714457	-0.0015675197	-0.13262032	1.0226659	-0.2342024	-0.16708895	1.0250432	0.25879045	0.0046212004	0.82217919	-0.26881736	0.003438465	0.84563213	0.27255769
189	0.752	0.025715688	0.036234687	-0.056622354	-0.22608971	0.090143393	0.14595415	-0.097480656	0.067682834	-0.073880476	-0.28879666	0.21499192	0.14965318	-0.09441713	0.080578782	0.014653634	-0.24767682	0.20587369	0.06901708	-0.17255748	0.041335766	-0.025801069	-0.33255452	0.23517219	0.08203353	0.0049523551	0.42808559	-0.097061406	0.0081888066	0.44203592	0.18111019	-0.020720147	0.42898922	0.021942709	0.013998567	0.42311697	0.046103314	-0.080778932	0.81670217	-0.16418959	-0.11307274	0.79170939	0.17612138	-0.013366451	0.85870911	-0.11485449	-0.021658569	0.85010032	0.13099383	-0.19993079	0.93426553	0.0075684408	-0.066307981	1.33783	-0.17783614	-0.080277138	1.3342931	0.18240212	-0.14806888	1.3729249	-0.0012245631	-0.12402907	1.023994	-0.23498993	-0.16304698	1.0271469	0.25847529	0.016928221	0.82537567	-0.26749247	0.0043372539	0.84502081	0.27324202
